<svg version="1.0" viewBox="0 0 128 128" xmlns="http://www.w3.org/2000/svg">
 <g transform="translate(0 -4)">
  <ellipse cx="65" cy="112.5" rx="45" ry="12.5" opacity=".2" stroke-width="1.0818"/>
  <path d="m125 54.317c0 39.246-28.406 62.345-60.764 62.486-35.619 0.15562-61.385-24.019-61.385-62.953 0-26.173 28.871-33.85 61.23-33.85 32.359 0 60.92 8.1441 60.92 34.317z" fill="#333" stroke-width="2.4929"/>
  <path d="m122.85 54.849c0 37.762-27.406 59.987-58.626 60.123-34.365 0.14974-59.225-23.11-59.225-60.572 0-25.183 27.855-32.57 59.075-32.57 31.22 0 58.775 7.8361 58.775 33.019z" fill="#f9f9f9" stroke-width="2.4019"/>
  <g>
   <path d="m64.127 11a12.92 9.8809 0 0 0-11.255 5.0279 12.92 9.8809 0 0 0-1.0368-0.0297 12.92 9.8809 0 0 0-11.604 5.5377 12.92 9.8809 0 0 0-6.0029-1.1333 12.92 9.8809 0 0 0-12.922 9.8827 12.92 9.8809 0 0 0 0.63469 3.0534 52.15 25.914 0 0 0-9.9419 15.217 52.15 25.914 0 0 0 52.151 25.917 52.15 25.914 0 0 0 52.146-25.917 52.15 25.914 0 0 0-7.5872-13.461 12.92 9.8809 0 0 0 2.2917-5.6218 12.92 9.8809 0 0 0-12.917-9.8777 12.92 9.8809 0 0 0-7.2093 1.6776 12.92 9.8809 0 0 0-10.446-4.0679 12.92 9.8809 0 0 0-4.0698 0.50477 12.92 9.8809 0 0 0-12.234-6.7105z" fill="#333" stroke-width="2.4567"/>
   <path d="m64.128 13.027a12.354 9.2498 0 0 0-10.762 4.7069 12.354 9.2498 0 0 0-0.9914-0.0278 12.354 9.2498 0 0 0-11.095 5.184 12.354 9.2498 0 0 0-5.7399-1.0609 12.354 9.2498 0 0 0-12.355 9.2516 12.354 9.2498 0 0 0 0.60689 2.8584 49.865 24.259 0 0 0-9.5064 14.246 49.865 24.259 0 0 0 49.867 24.262 49.865 24.259 0 0 0 49.862-24.262 49.865 24.259 0 0 0-7.2549-12.601 12.354 9.2498 0 0 0 2.1913-5.2628 12.354 9.2498 0 0 0-12.351-9.2469 12.354 9.2498 0 0 0-6.8935 1.5705 12.354 9.2498 0 0 0-9.9882-3.8081 12.354 9.2498 0 0 0-3.8915 0.47254 12.354 9.2498 0 0 0-11.698-6.282z" fill="#7cad4c" stroke-width="2.3243"/>
   <path d="m102.28 15.934c-0.45802 0.01337-0.90218 0.04618-1.3301 0.0957a1.6193 1.6193 0 0 0-1.2246 0.81055l-8.3848 14.826a1.6193 1.6193 0 0 0-0.10938 1.3574c0.47641 1.2931 1.0511 2.5159 1.7266 3.666a1.6193 1.6193 0 0 0 0.22461 0.29688c1.0138 1.0637-0.75641-0.86747 0.19726 0.21484 0.95367 1.0823-0.70759-0.88012 0.18359 0.2168s-0.65479-0.88672 0.17188 0.2207-0.60224-0.89109 0.1582 0.22266c0.76044 1.1137-0.54834-0.89317 0.14453 0.22266 0.69287 1.1158-0.49151-0.89098 0.13281 0.22266 0.62432 1.1136-0.43802-0.8865 0.11719 0.2207 0.55521 1.1072-0.38242-0.87589 0.10352 0.2207a1.6193 1.6193 0 0 0 0.20898 0.34766c0.68163 0.86348 1.4321 1.6699 2.2441 2.4219a1.6193 1.6193 0 0 0 1.2305 0.42578c3.3112-0.26915-3.1377 0.18964 0.18555-0.01172 3.3232-0.20136-3.1443 0.1235 0.1875-0.0098 3.3318-0.13327-3.1513 0.05912 0.18555-0.0059 3.3369-0.06498-3.1509-0.0054 0.1875-2e-3a1.6193 1.6193 0 0 0 2e-3 0c1.3647 2.41e-4 -0.342-0.09504 1.002 0.05469 1.3439 0.14972-0.31188-0.12864 0.97071 0.16406 1.2826 0.29271-0.2706-0.15703 0.9121 0.26562 1.1827 0.42265-0.22205-0.17952 0.82618 0.35352 1.0482 0.53303-0.17052-0.18995 0.71484 0.42773 0.88536 0.61769-0.11735-0.1953 0.58594 0.47656s-0.0652-0.18852 0.44922 0.50586c0.51442 0.69438-0.0201-0.17712 0.3125 0.51367a1.6193 1.6193 0 0 0 2.4297 0.5918l16.943-12.709a1.6193 1.6193 0 0 0 0.52539-1.9141c-4.6068-11.124-15.335-14.912-22.215-14.711z" fill="#333" stroke-width="2.372"/>
   <path d="m102.33 17.553c-0.41509 0.01212-0.81391 0.04029-1.1914 0.08398l-8.3848 14.826c0.44493 1.2077 0.97873 2.3425 1.6035 3.4062a7.6471 5.4412 26.903 0 1 1.5176 2.2227c0.62833 0.79596 1.3199 1.5416 2.0723 2.2383a7.6471 5.4412 0 0 1 0.87891-0.03516 7.6471 5.4412 0 0 1 7.2324 3.6777l16.943-12.709c-4.3126-10.414-14.445-13.893-20.672-13.711z" fill="#f4f0b6" stroke-width="2.372"/>
  </g>
  <g>
   <circle cx="106.5" cy="30.5" r="1.5" opacity=".34711"/>
   <circle cx="101.5" cy="27.5" r=".5" opacity=".15289"/>
   <ellipse cx="102.5" cy="23.5" rx="1.5" ry=".5" opacity=".3781"/>
   <ellipse cx="103.14" cy="17.467" rx=".85938" ry="1.5332" opacity=".3781"/>
   <circle cx="106.5" cy="21.5" r="1.5" opacity=".20868"/>
   <ellipse cx="114" cy="23.5" rx="1" ry=".5" opacity=".40083"/>
   <ellipse cx="109.5" cy="26" rx=".5" ry="1" opacity=".3781"/>
   <ellipse cx="119" cy="29.5" rx="1" ry="1.5" opacity=".50826"/>
   <ellipse cx="101" cy="35.5" rx="1" ry=".5" opacity=".20248"/>
   <ellipse cx="112" cy="35.5" rx="1" ry="1.5" opacity=".3781"/>
   <ellipse cx="113.5" cy="30" rx=".5" ry="1" opacity=".3781"/>
   <ellipse cx="96.5" cy="31" rx=".5" ry="1" opacity=".29546"/>
   <ellipse cx="105.5" cy="39" rx=".5" ry="1" opacity=".3781"/>
  </g>
  <g fill="#4e9c30">
   <ellipse cx="44" cy="26.5" rx="3" ry="2.5"/>
   <circle cx="65" cy="22" r="1"/>
   <ellipse cx="74.5" cy="28" rx="2.5" ry="2"/>
   <ellipse cx="57" cy="34.5" rx="1" ry="1.5"/>
   <ellipse cx="43" cy="46.5" rx="2" ry="1.5"/>
   <circle cx="30" cy="37" r="2"/>
   <ellipse cx="23" cy="46" rx="1" ry="2"/>
   <ellipse cx="34" cy="57" rx="3" ry="2"/>
   <ellipse cx="66.5" cy="60.5" rx="2.5" ry="1.5"/>
   <circle cx="67" cy="50" r="2"/>
   <ellipse cx="53.5" cy="53.5" rx="1.5" ry=".5"/>
   <ellipse cx="88.5" cy="48.5" rx="2.5" ry="1.5"/>
   <circle cx="82.5" cy="59.5" r="1.5"/>
   <circle cx="74.5" cy="37.5" r="1.5"/>
  </g>
  <g fill="#acbe4f">
   <ellipse cx="30" cy="44.5" rx="1" ry="1.5"/>
   <ellipse cx="63.5" cy="34.5" rx="1.5" ry=".5"/>
   <ellipse cx="87.5" cy="37.5" rx="1.5" ry="2.5"/>
   <ellipse cx="81" cy="51.5" rx="1" ry=".5"/>
   <circle cx="53.5" cy="63.5" r="1.5"/>
   <ellipse cx="43" cy="57.5" rx="2" ry="1.5"/>
   <circle cx="90" cy="64" r="1"/>
   <ellipse cx="101.5" cy="53.5" rx="1.5" ry=".5"/>
   <ellipse cx="81" cy="40.5" rx="1" ry=".5"/>
   <ellipse cx="52.5" cy="41.5" rx=".5" ry="1.5"/>
   <ellipse cx="40" cy="34.5" rx="1" ry=".5"/>
  </g>
  <g fill="#877e40">
   <ellipse cx="22.5" cy="51.5" rx="1.5" ry="2.5"/>
   <ellipse cx="36.5" cy="49" rx="1.5" ry="1"/>
   <ellipse cx="57" cy="44.5" rx="1" ry="1.5"/>
   <circle cx="45" cy="36" r="1"/>
   <circle cx="56.5" cy="26.5" r="1.5"/>
   <ellipse cx="85" cy="26" rx="2" ry="1"/>
   <ellipse cx="67.5" cy="41.5" rx=".5" ry="1.5"/>
   <ellipse cx="76" cy="48.5" rx="1" ry=".5"/>
   <ellipse cx="92.5" cy="44" rx=".5" ry="1"/>
   <circle cx="94.5" cy="56.5" r="1.5"/>
   <ellipse cx="76" cy="63.5" rx="1" ry="1.5"/>
   <ellipse cx="61.5" cy="67" rx="1.5" ry="1"/>
   <circle cx="42.5" cy="64.5" r="1.5"/>
   <circle cx="73" cy="55" r="1"/>
  </g>
  <path d="m6.2363 68.324c0.92315 4.9793 2.3494 9.62 4.2266 13.893 20.744 24.52 68.214 32.633 104.67 4.0293 2.2935-4.0908 4.1349-8.5842 5.4434-13.457-29.776 15.354-65.108 32.903-114.34-4.4648z" fill="#cbdef2" opacity=".76"/>
 </g>
</svg>
