<svg fill="none" version="1.1" viewBox="0 0 75 19" xmlns="http://www.w3.org/2000/svg">
 <g fill="#fff">
  <path d="m35.317 9.53c0 1.95-0.717 3.532-2.433 3.532-1.717 0-2.323-1.581-2.324-3.532v-0.01c0-1.95 0.607-3.532 2.324-3.532 1.716 0 2.432 1.581 2.433 3.532z"/>
  <path d="m32.88 0.178c-5.311 0-6.68 4.185-6.68 9.347s1.369 9.347 6.68 9.347c5.313 0 6.68-4.185 6.68-9.347 0-5.161-1.367-9.347-6.68-9.347z"/>
  <path d="m66.592 13.83 1.326-8.32 1.328 8.318z"/>
  <path d="m71.748 0.514h-7.658l-3.255 18.22h4.96l0.506-3.126h3.232l0.506 3.125h4.96l-3.25-18.219z"/>
  <path d="m48.281 8.858c-0.478-0.15-0.784-0.25-1.766-0.577-0.677-0.225-1.245-0.467-1.28-1.023-0.048-0.73 0.829-0.877 1.858-0.852 2.358 0.055 5.5 1.408 5.544 1.413v-6.578s-2.499-1.116-5.871-1.116c-4.976 0-6.145 2.813-6.145 4.955 0 2.55 2.055 3.9 5.256 5.06 0.491 0.157 0.784 0.248 1.766 0.576 0.677 0.225 1.245 0.467 1.28 1.023 0.048 0.73-0.829 0.877-1.858 0.852-2.358-0.055-6.12-1.853-6.163-1.858v6.579s3.118 1.56 6.49 1.56c4.976 0 6.44-2.814 6.366-4.955-0.066-1.886-1.275-3.79-5.477-5.06z"/>
  <path d="m12.514 9.467v0.113c0 5.126 1.4 9.28 6.68 9.28 2.146 0 4.495-0.841 5.516-1.898v-5.986c-1.703 1.162-2.826 1.903-4.623 1.903-1.512 0-3.011-0.838-3.011-3.292v-0.127c0-2.454 1.505-3.291 3.01-3.291 1.798 0 2.921 0.74 4.624 1.902v-5.987c-1.02-1.057-3.37-1.899-5.516-1.899-5.28 0-6.68 4.156-6.68 9.282z"/>
  <path d="m59.558 0.514h-4.63v18.22h4.63z"/>
  <path d="m0 6.916v11.752h11.175v-6.248h-6.545v-1.99h4.092v-1.78h-4.092v-1.845h6.545v-6.392h-11.175z"/>
 </g>
</svg>
