<svg version="1.1" viewBox="0 0 128 128" xmlns="http://www.w3.org/2000/svg">
 <g data-name="Layer 2">
  <g data-name="Layer 1">
   <g transform="translate(4.0622 4.0326)" stroke-width=".6665">
    <path class="cls-2" d="m59.961 119.97a59.675 59.682 0 0 0 34.363-10.831l-23.326-27.848a23.899 23.902 0 0 1-19.994 0.93983l-23.593 28.122a59.735 59.742 0 0 0 32.55 9.6182z" fill="#999"/>
    <path class="cls-3" d="m103.9 19.159-23.599 28.155a23.933 23.936 0 0 1-9.3305 33.994l23.36 27.848a59.982 59.989 0 0 0 9.5771-89.984z" fill="#ccc"/>
    <path class="cls-4" d="m83.954 59.978a23.866 23.869 0 0 0-3.6522-12.664l-29.284 34.92a23.993 23.996 0 0 0 32.937-22.256z" fill="#f9f9f9"/>
    <path class="cls-1" d="m27.398 110.35 23.586-28.115a23.993 23.996 0 1 1 29.324-34.96l23.586-28.115a59.982 59.989 0 1 0-76.497 91.203z" fill="#808080"/>
   </g>
  </g>
 </g>
</svg>
