<svg version="1.1" viewBox="0 0 48 48" xmlns="http://www.w3.org/2000/svg">
 <g class="layer">
  <title>Layer 1</title>
  <g transform="rotate(90 24 24)" fill="none" stroke="#fff" stroke-linecap="square" stroke-miterlimit="10" stroke-width="3">
   <polyline points="39 24 25 24 25 28"/>
   <polyline points="35.879 10.121 32 14 25 14 25 18"/>
   <path d="m13 26a10.29 10.29 0 0 1-7.2-3"/>
   <path d="m17 31.6a5.83 5.83 0 0 1-4-5.6 5.73 5.73 0 0 1 2-4.4"/>
   <path d="m35.88 37.88-3.88-3.88h-7v2a9.9 9.9 0 0 1-10 10 9.9 9.9 0 0 1-10-10 9.06 9.06 0 0 1 0.6-3.2 5.63 5.63 0 0 1-2.6-4.8 5.89 5.89 0 0 1 2.8-5 9.99 9.99 0 0 1-2.8-7 9.9 9.9 0 0 1 10-10h0.4a5.83 5.83 0 0 1 5.6-4 5.89 5.89 0 0 1 6 6"/>
   <circle cx="38" cy="8" r="3" data-color="color-2"/>
   <circle cx="42" cy="24" r="3" data-color="color-2"/>
   <circle cx="38" cy="40" r="3" data-color="color-2"/>
  </g>
 </g>
</svg>
