<?xml version="1.0" encoding="UTF-8" standalone="no"?>
<svg
   version="1.1"
   viewBox="0 0 128 128"
   xml:space="preserve"
   id="svg2"
   sodipodi:docname="rockstor-dark.svg"
   inkscape:version="1.4.2 (f4327f4, 2025-05-13)"
   xmlns:inkscape="http://www.inkscape.org/namespaces/inkscape"
   xmlns:sodipodi="http://sodipodi.sourceforge.net/DTD/sodipodi-0.dtd"
   xmlns="http://www.w3.org/2000/svg"
   xmlns:svg="http://www.w3.org/2000/svg"><defs
   id="defs2" /><sodipodi:namedview
   id="namedview2"
   pagecolor="#505050"
   bordercolor="#eeeeee"
   borderopacity="1"
   inkscape:showpageshadow="0"
   inkscape:pageopacity="0"
   inkscape:pagecheckerboard="0"
   inkscape:deskcolor="#505050"
   showgrid="true"
   inkscape:zoom="6.06"
   inkscape:cx="114.93399"
   inkscape:cy="74.009901"
   inkscape:window-width="2560"
   inkscape:window-height="1013"
   inkscape:window-x="-4"
   inkscape:window-y="-4"
   inkscape:window-maximized="1"
   inkscape:current-layer="g9"><inkscape:grid
     id="grid2"
     units="px"
     originx="0"
     originy="0"
     spacingx="1"
     spacingy="1"
     empcolor="#0099e5"
     empopacity="0.30196078"
     color="#0099e5"
     opacity="0.14902"
     empspacing="5"
     enabled="true"
     visible="true" /></sodipodi:namedview>
<style
   type="text/css"
   id="style1">
	.st0{fill:#F29111;}
	.st1{fill:#00758A;}
</style>

<g
   id="g9"
   transform="matrix(0.41237289,0,0,0.41237289,-18.372882,-18.372884)"><path
     id="rect1"
     style="opacity:1;fill:#ffffff;stroke-width:5.05583;stroke-linecap:round;stroke-linejoin:round"
     d="m 184.5972,112.3543 c -44.39821,-1.8e-4 -80.38956,29.7939 -80.38935,66.54513 2.6e-4,1.5169 0.0639,3.03351 0.18945,4.54685 h -5.280983 c -23.51123,0 -42.43732,17.69912 -42.43732,39.68079 0,21.98168 18.92609,39.67605 42.43732,39.67605 H 216.72832 V 250.63555 H 99.116317 c -17.405747,0 -30.269744,-12.5111 -30.269744,-27.50848 -1e-6,-14.99736 12.864001,-27.51321 30.269744,-27.51321 h 5.280983 c 7.11703,0.001 12.71611,-6.07885 12.12968,-13.17167 -0.0982,-1.18359 -0.15136,-2.3649 -0.15156,-3.54276 0.001,-28.806 29.27275,-54.37771 68.22652,-54.37755 26.58211,1e-4 50.3693,12.63797 61.4015,30.77179 2.73879,4.5008 8.06287,6.72793 13.19061,5.5178 3.25224,-0.76815 6.58376,-1.15554 9.9273,-1.15566 14.49612,1.3e-4 27.65859,7.17655 35.47495,18.65632 l 9.36842,-7.82912 c -10.13383,-14.18284 -26.72695,-22.99461 -44.84337,-22.99478 -4.28526,1.5e-4 -8.55288,0.49783 -12.72172,1.48247 -13.65801,-22.44992 -41.43634,-36.61628 -71.80243,-36.6164 z"
     sodipodi:nodetypes="sccsssccssscccscccccccs" /><path
     id="rect14"
     style="opacity:1;fill:#e96645;fill-opacity:1;stroke-width:18.3306;stroke-linecap:round;stroke-linejoin:round"
     d="m 232.49075,190.05343 c -2.01517,0 -3.63749,1.62231 -3.63749,3.63748 v 31.52487 c 0,2.01516 1.62232,3.63748 3.63749,3.63748 h 113.97451 c 2.01517,0 3.63749,-1.62232 3.63749,-3.63748 v -31.52487 c 0,-2.01517 -1.62232,-3.63748 -3.63749,-3.63748 z m 6.06247,9.69995 H 340.40279 V 219.1533 H 238.55322 Z" /><path
     id="rect14-1"
     style="fill:#e96645;fill-opacity:1;stroke-width:18.3306;stroke-linecap:round;stroke-linejoin:round"
     d="m 232.49075,219.1533 c -2.01517,0 -3.63749,1.62231 -3.63749,3.63748 v 31.52487 c 0,2.01516 1.62232,3.63748 3.63749,3.63748 h 113.97451 c 2.01517,0 3.63749,-1.62232 3.63749,-3.63748 v -31.52487 c 0,-2.01517 -1.62232,-3.63748 -3.63749,-3.63748 z m 6.06247,9.69995 h 101.84957 v 19.39992 H 238.55322 Z" /><path
     id="path18"
     style="fill:#e96645;fill-opacity:1;stroke-width:18.3306;stroke-linecap:round;stroke-linejoin:round"
     d="m 232.49075,248.25318 c -2.01517,0 -3.63749,1.62231 -3.63749,3.63748 v 31.52487 c 0,2.01516 1.62232,3.63748 3.63749,3.63748 h 113.97451 c 2.01517,0 3.63749,-1.62232 3.63749,-3.63748 v -31.52487 c 0,-2.01517 -1.62232,-3.63748 -3.63749,-3.63748 z m 6.06247,9.69995 h 101.84957 v 19.39992 H 238.55322 Z" /></g></svg>
