<svg xmlns="http://www.w3.org/2000/svg" xml:space="preserve" width="1024" height="1024" data-version="2">
    <circle r="50" fill="#111" paint-order="stroke" transform="matrix(10.0384 0 0 10.0384 512 512)"/>
    <path fill="#FFF" fill-rule="evenodd" d="M535.754 264.829c-2.11 2.11-.494 8.949 2.567 10.86 3.137 1.958 3.404 3.966 3.404 25.524v23.393h-5.979c-3.28 0-7.3.703-8.927 1.561-5.845 3.09-27.273 5.751-35.555 4.42-10.827-1.74-47.63-1.102-62.618 1.09-6.548.955-29.963 1.994-52.04 2.3-42.034.591-60.213 2.755-62.517 7.446-.74 1.503-.743 23.775-.004 49.49.85 29.746.74 47.345-.306 48.394-2.87 2.867-58.447 4.796-76.796 2.669-11.628-1.352-17.513-1.392-19.867-.13-1.839.984-10.301 1.788-18.8 1.788-14.84 0-15.529.17-17.39 4.262-1.25 2.74-4.146 4.853-8.112 5.92-3.396.916-7.673 3.044-9.504 4.727a85.135 85.135 0 0 1-7.558 6c-3.53 2.452-4.269 4.413-4.456 11.844-.346 13.774.76 14.86 15.154 14.86h12.302l3.116 25.93c1.716 14.264 4.521 32.819 6.237 41.234 3.436 16.874 17.495 63.38 21.59 71.42 12.397 24.36 49.82 68.34 65.298 76.745 7.644 4.15 44.93 22.441 52.48 25.74q4.247 1.854 1.417 1.973c-1.562.065-6.44 1.658-10.846 3.548-7.752 3.324-7.98 3.627-7.045 9.37 1.94 11.968 1.384 11.845 54.624 11.92 26.246.037 48.846.228 50.226.426 1.728.245 1.201 1.248-1.701 3.235-2.315 1.582-4.778 3.684-5.48 4.676-1.876 2.657.33 11.679 3.46 14.127 3.613 2.827 16.453 2.671 35.566-.426 16.943-2.747 75.44-3.732 105.082-1.766 9.353.62 23.126 1.41 30.608 1.759 7.481.346 15.381 1.031 17.559 1.522 2.174.49 8.567 1.363 14.206 1.94 8.25.843 9.988.612 8.895-1.205-1.082-1.795-.844-1.839 1.18-.202 3.093 2.503 13.538 3.382 16.725 1.414 1.655-1.024 1.933-.804.967.757-1.024 1.658-.065 2 3.991 1.406 2.939-.433 5.344-.21 5.344.494 0 .703 3.079 1.06 6.847.793 3.764-.27 7.254.17 7.752.974a3.418 3.418 0 0 0 2.603 1.467c.937 0 1.226-.764.649-1.702-.577-.937.335-1.723 2.026-1.756 2.665-.05 2.539-.504-.937-3.4-2.207-1.839-5.08-3.346-6.378-3.346s-2.362-.764-2.362-1.698c0-.937 1.965-1.702 4.363-1.702 2.401 0 5.934-.84 7.856-1.867 4.406-2.362 31.61-3.523 32.92-1.407 1.539 2.488 7.986 1.947 6.572-.551-.959-1.702-.739-1.702 1.093 0 3.029 2.812 8.96 2.812 7.536 0-.592-1.169-.065-.938 1.175.519 1.612 1.893 4.658 2.495 10.752 2.12a830.26 830.26 0 0 1 18.28-.873c5.376-.19 9.779-.829 9.779-1.413 0-1.074 1.489-1.356 9.533-1.803 2.437-.14 3.775-.728 2.975-1.312-3.22-2.351-2.135-5.315 1.947-5.315 2.336 0 4.247-.811 4.247-1.803 0-.988.577-1.442 1.276-1.01 1.947 1.205 1.19-7.557-1.19-13.776-1.25-3.26-3.63-5.877-5.783-6.364-13.87-3.137-18.583-3.811-21.406-3.072-1.767.461-5.39-.775-8.059-2.748-7.73-5.714-21.266-6.861-67.785-5.74-25.6.617-43.282.411-43.271-.5.01-.852 6.119-4.483 13.575-8.067 9.591-4.615 15.807-9.02 21.237-15.057 4.219-4.694 12.457-12.14 18.306-16.55 5.844-4.409 13.719-11.022 17.498-14.7 4.6-4.45 9.26-8.838 13.982-13.16 23.368-21.273 55.595-71.073 65.676-101.501 8.787-26.516 16.348-68.65 16.348-91.077 0-4.85.48-11.214 1.064-14.134l1.063-5.315 13.817-.014c11.192-.015 16.917-1.086 30.15-5.65 27.042-9.32 35.667-15.67 47.86-35.234 10.745-17.239 10.05-19.856-8.184-30.814-20.274-12.183-36.885-17.09-57.311-16.932-9.133.072-18.183.974-20.116 2.009-4.258 2.278-8.343.984-8.343-2.65 0-7.594-21.706-40.005-32.977-49.242-7.892-6.465-27.82-16.21-33.157-16.21-3.79 0-12.656 10.484-16.358 19.35-4.298 10.283-3.379 36.164 1.838 51.766 5.156 15.417 13.864 31.621 21.252 39.528l5.296 5.672-5.678 4.76c-6.941 5.819-42.871 30.26-44.48 30.26-.637 0-1.16-1.467-1.16-3.259 0-4.077-3.44-5.458-6.8-2.729-1.832 1.486-8.683 1.846-24.223 1.273l-21.67-.793-1.6-6.177c-1.922-7.42-3.213-98.844-1.396-98.84.703 0 1.277-1.998 1.277-4.435 0-3.104-.714-4.157-2.384-3.52-1.312.506-2.733.567-3.158.145-.425-.425-11.25-1.1-24.053-1.493-12.803-.396-26.689-1.226-30.853-1.853l-7.572-1.136-.126-20.634c-.072-11.35-.393-22.02-.714-23.707-.379-1.998.858-3.62 3.534-4.637 4.564-1.73 5.466-6.908 1.741-9.998-2.308-1.919-40.833-2.29-42.708-.415m19.57 10.287c-6.713 1.871-5.678 7.694 1.494 8.383 6.836.649 9.464-1.45 7.914-6.332-1.183-3.735-2.398-4.002-9.407-2.051m-2.347 18.558c-1.19 1.921-1.165 12.078.054 22.86.894 7.892 1.045 8.076 6.767 8.076h5.856l-.487-15.731-.49-15.728-5.365-.52c-2.953-.288-5.805.181-6.335 1.043m181.477 23.652c-5.005 11.978 1.958 45.885 13.928 67.847 7.561 13.87 9.281 18.9 5.711 16.694-1.03-.638-.602.782.956 3.158 1.554 2.373 3.93 4.742 5.275 5.257 4.91 1.886 2.127 5.495-11.596 15.043-18.615 12.948-33.568 24.814-33.568 26.645 0 .815 2.282 1.818 5.07 2.225 5 .736 14.974-4.36 35.22-17.988 10.062-6.772 11.313-5.228 9.987 12.32-.613 8.066-1.479 19.636-1.922 25.715-.444 6.08-1.082 12.966-1.406 15.306-.41 3.28-.682 6.576-.819 9.88-.119 3.09-.804 5.26-1.521 4.816-.721-.443-1.01 2.29-.65 6.076.448 4.727.066 6.515-1.225 5.718-1.176-.724-1.515-.202-.902 1.396.541 1.406-.324 9.136-1.918 17.173-1.597 8.04-2.524 15-2.055 15.468 1.38 1.381 13.856-19.524 20.39-34.174 8.047-18.042 12.843-34.18 14.844-49.966 3.386-26.74 6.67-34.491 13.164-31.08 1.658.872 6.302 2.127 10.323 2.794 6.814 1.132 8.184.635 20.404-7.392 8.415-5.523 16.816-13.03 23.487-20.991 9.44-11.257 17.065-23.051 15.67-24.223-4.064-3.407-18.562-6.76-48.496-11.213-9.071-1.352-11.657-1.09-18.651 1.91-7.785 3.336-8.214 3.354-10.356.426-1.875-2.563-1.813-3.364.375-4.965 3.606-2.635 3.332-4.449-2.365-15.735-8.405-16.65-20.217-29.198-35.108-37.289-7.258-3.944-14.638-7.175-16.405-7.175-2.088 0-4.118 2.2-5.841 6.324m-249.847 68.885c.494 25.506 1.385 48.424 1.976 50.93.984 4.171 1.972 4.654 11.527 5.65 5.751.598 13.514.706 17.257.237 3.739-.468 14.27-.905 23.404-.973l16.603-.119-.45-50.587-.447-50.586-35.386-.462-35.385-.461zm85.806-45.08-7.87.649.793 18.197c.432 10.006 1.298 32.732 1.918 50.5l1.125 32.306 22.102.282c12.158.155 26.343-.094 31.52-.549l9.414-.829-.06-50.464-.062-50.46-25.506-.144c-14.026-.072-29.047.155-33.374.512m-185.22 5.033c-.562 8.614.4 76.907 1.19 84.295.859 8.044 1.605 9.775 4.223 9.775 2.992 0 3.169-1.73 2.97-29.331-.111-16.132-.684-37.354-1.272-47.169-.905-15.133-1.518-17.92-4.042-18.403-1.64-.314-3.018.061-3.068.83m50.918 64.316c-.682 26.123.151 32.018 4.309 30.424 1.81-.696 2.004-2.185.822-6.306-.851-2.964-1.587-12.28-1.644-20.703-.18-28.791-2.755-31.308-3.487-3.415m-29.162-5.95c-2.153 11.034-3.137 23.967-2.08 27.295.576 1.821 2.538 3.31 4.355 3.31 2.863 0 3.173-.85 2.311-6.374-.544-3.509-1.54-11.733-2.21-18.28-1.075-10.53-1.349-11.214-2.376-5.95m54.398-1.702c-.577 1.406-1.291 8.852-1.587 16.557-.39 10.29.054 14.228 1.67 14.848 1.21.469 2.56-.098 2.996-1.251 1.19-3.152-1.864-33.103-3.08-30.154m-113.857 20.382c-.74 7.64-.45 11.412.937 12.285 2.755 1.73 3.245-2.722 1.544-13.961l-1.421-9.353zm-19.47 4.99c.184 5.636 1.128 9.49 2.426 9.92 2.69.887 2.535-3.552-.432-12.335l-2.294-6.804zm-50.01 22.954c-.393.397-10.658 1.1-22.813 1.565-12.154.465-22.48.998-22.95 1.182-3.62 1.443 13.843 2.971 35.887 3.137 32.552.249 47.436-1.1 47.436-4.29 0-1.803-4.039-2.308-18.425-2.308-10.132 0-18.742.32-19.135.714m58.295 1.154c.981 2.963 17.376 4.1 25.474 1.766 5-1.442 4.283-1.647-6.252-1.802-6.544-.101-13.727-.667-15.955-1.262-3.025-.812-3.854-.48-3.267 1.298m349.527 14.606c-3.966 1.038-3.81 1.68 2.012 8.314 5.383 6.13 6.862 4.836 5.491-4.81-.652-4.604-1.6-5.047-7.503-3.504m-38.688 2.044c-4.085 1.136-4.29 1.868-5.401 18.962-.635 9.779-.887 48.009-.555 84.948.331 36.943-.145 74.715-1.057 83.946-.908 9.23-1.29 17.14-.844 17.584 1.536 1.54 5.654-8.898 7.857-19.91 1.215-6.079 2.827-12.277 3.58-13.773.758-1.497 1.76-6.087 2.236-10.204 1.503-12.962 1.8-14.253 3.54-15.533 1.046-.768.877-1.258-.45-1.276-1.453-.015-1.857-1.68-1.251-5.128.494-2.808 1.222-8.541 1.615-12.738.397-4.197 1.161-8.354 1.702-9.23.544-.88.375-1.98-.375-2.445-.75-.462-1.248-3-1.107-5.643.144-2.64-.595-5.902-1.637-7.25-1.45-1.872-1.395-2.15.227-1.176 1.349.811 2.128.274 2.128-1.475 0-1.644-.794-2.264-1.965-1.54-1.342.83-1.497.462-.484-1.171 2.156-3.48 2.156-29.35 0-30.846-1.179-.815-1.034-1.259.422-1.277 1.352-.014 1.706-.858.898-2.149-2.059-3.299-2.286-5.484-3.415-33.11-.804-19.694-.54-26.5 1.1-28.484 2.438-2.935.851-3.187-6.76-1.082m-38.429 2.167c-.39.624-.029 2.92.793 5.102 1.735 4.587 1.944 33.936.235 32.883-.631-.39-1.143.372-1.143 1.695 0 1.32.638 2.005 1.417 1.525.782-.483 1.417-.065 1.417.923 0 .992-.747 1.803-1.659 1.803-1.063 0-1.081 1.514-.04 4.25 1.05 2.766 1.025 4.252-.075 4.252-.93 0-1.345 1.91-.923 4.251.425 2.336.13 4.251-.656 4.251s-1 1.648-.47 3.663q.956 3.67-.94 2.495c-1.4-.865-1.406.253-.018 4.233 1.399 4.01 1.38 6.22-.065 8.538-2.513 4.024-2.484 5.402.08 3.819 1.117-.693.201 1.316-2.038 4.463-3.328 4.67-3.526 5.51-1.085 4.572 2.596-.998 2.837-.429 1.835 4.363-.635 3.029-1.172 7.593-1.197 10.135-.029 2.914-.74 4.208-1.922 3.498-1.035-.613-.732.32.67 2.08 2.045 2.571 2.074 2.92.138 1.749-1.81-1.092-2.142-.746-1.327 1.374.602 1.575.26 2.83-.772 2.83-1.32 0-1.33.631-.043 2.185.995 1.197 1.533 3.685 1.19 5.524-.343 1.839-.685 3.966-.757 4.72-.072.757-1.082.8-2.254.097-1.442-.865-1.377-.353.21 1.6 2.523 3.116 4.478 3.945 2.765 1.176-.577-.934-.335-1.698.54-1.698.899 0 1.472 7.103 1.313 16.276-.151 8.952.231 16.59.848 16.971 1.272.79.59 26.97-.974 37.318-.566 3.743-1.32 9.483-1.677 12.753-.357 3.274-1.427 8.993-2.38 12.706-.951 3.714-1.463 7.02-1.135 7.349.833.836 13.69-7.295 24.266-15.35 5.913-4.5 9.616-8.851 11.033-12.965 2.668-7.763 3.454-203.864.829-207.279-1.72-2.235-24.648-2.35-26.032-.13m-80.398 1.262c-1.857 1.176-1.623 1.717 1.125 2.59 5.88 1.867 9.122 8.988 9.991 21.968.447 6.685 1.118 13.106 1.493 14.267.371 1.161-.04 12.26-.916 24.655-.876 12.404-1.994 39.763-2.48 60.805-.491 21.043-1.263 40.938-1.72 44.212-.884 6.328-2.885 26.033-3.16 31.077-.09 1.658-1.106 2.654-2.26 2.21-1.28-.49-1.73.155-1.154 1.648.512 1.348 1.55 2.077 2.3 1.612.75-.462.491 1.01-.576 3.266-1.064 2.257-2.333 3.865-2.813 3.566-.486-.3-.861 2.484-.836 6.184.022 3.7 1.046 7.348 2.268 8.102 1.633 1.01 1.168 1.716-1.742 2.646-2.185.7-4.712 1.132-5.624.963-.909-.173-.18 1.312 1.611 3.299 4.55 5.026 4.662 8.48.332 10.344-2.495 1.075 3.01 1.453 16.997 1.172 11.38-.23 21.327-1.056 22.106-1.839 1.247-1.244 2.953-41.442 2.75-64.9-.039-4.673-1.312-34.607-2.83-66.513-1.514-31.906-2.754-70.356-2.754-85.446v-27.43l-14.877.024c-8.185.015-15.937.696-17.231 1.515m38.526 25.008c-.541 30.698.862 70.72 3.833 109.426 1.997 26.015 1.37 84.321-1.093 101.787-1.031 7.297-.995 7.355 3.83 6.803 3.72-.425 4.773-1.359 4.463-3.959-2.863-24.193-3.119-103.902-.35-107.241.84-1.01 1.19-3.57.779-5.69-.573-2.989-.126-3.62 1.983-2.812 2.272.873 2.365.613.577-1.543-1.695-2.041-1.713-3.123-.083-5.084 1.14-1.37 1.73-3.476 1.32-4.677-.415-1.2-.116-4.416.656-7.15.89-3.154.721-5.794-.469-7.225-1.294-1.558-1.316-2.26-.065-2.26 1.003 0 1.424-1.71.945-3.823-.476-2.109-1.103-6.508-1.392-9.782-.288-3.27-.678-5.949-.865-5.949-.18 0-.66-1.91-1.064-4.255-.584-3.414-.36-3.75 1.14-1.694 1.514 2.07 1.644 1.91.699-.855a67.886 67.886 0 0 1-1.961-7.597c-.44-2.307-1.71-5.325-2.824-6.706-1.532-1.897-1.54-2.21-.014-1.298q2.008 1.204-.382-3.591c-2.636-5.283-4.172-39.024-2.113-46.332 1.05-3.721.649-4.356-2.931-4.652l-4.147-.342zm-118.642-23.04c-3.274.8-17.048 1.832-30.612 2.293-44.818 1.53-65.196 2.86-67.897 4.439-2.091 1.222-1.666 1.572 1.947 1.612 9.093.1 9.375 3.328 4.327 49.36-4.208 38.425-2.423 77.993 5.66 125.327 1.789 10.478 3.253 22.896 3.253 27.598 0 4.701 1.25 11.675 2.78 15.493 4.013 10.03.825 12.183-5.726 3.858-7.06-8.967-11.769-18.742-13.813-28.675-.956-4.63-4.45-19.51-7.763-33.071-6.72-27.482-9.028-49.281-10.637-100.326-1.146-36.535.083-54.805 3.96-58.677 1.979-1.98 2.04-2.575.288-2.712-4.817-.378-29.433.534-32.75 1.212-6.367 1.301-18.58 2.343-35.81 3.054-9.354.385-29.819 2.044-45.489 3.681l-28.484 2.982-.303 12.904c-.17 7.096-.126 15.576.094 18.854.688 10.388 10.615 51.463 14.992 62.063 2.318 5.61 6.324 16.406 8.906 23.992 8.17 24.02 34.91 59.993 58.241 78.357 13.492 10.622 16.903 12.594 12.447 7.196-1.872-2.264.656-.414 5.613 4.11 10.215 9.321 29.364 18.862 52.199 26.015 18.157 5.683 33.359 6.119 59.514 1.699 9.353-1.58 19.466-3.267 22.473-3.747 5.092-.811 5.409-1.254 4.565-6.331-2.005-12.086-2.459-13.114-5.783-13.114-3.876 0-4.482-2.138-6.036-21.255-.61-7.481-2.308-16.279-3.768-19.553-2.874-6.429-4.402-19.697-7.15-62.067-1.777-27.391-3.41-42.279-6.739-61.381-2.358-13.55.137-46.675 3.952-52.502 2.56-3.9 11.693-7.661 18.66-7.683 5.393-.018 16.167 7.11 17.746 11.74.826 2.423 1.68 9.735 1.9 16.254.216 6.519.804 12.504 1.298 13.3.49.794.674 18.036.404 38.31-.725 54.52-.732 58.83-.101 81.072 1.128 39.842.584 57.034-1.926 60.92-1.65 2.557-2.076 6.321-1.384 12.198l.999 8.502 23.804-.54c13.095-.3 24.366-1.09 25.052-1.76.685-.667.504-9.988-.4-20.71-2.406-28.377-5.012-66.463-6.78-99.014-.847-15.68-1.946-29.155-2.433-29.945-.49-.793-.955-22.51-1.038-48.268-.145-46.692-.159-46.83-3.873-47.824-5.239-1.407-21.298-.974-28.38.757m42.561-.53c.025.703-.386 31.884-.92 69.292-.966 67.677.033 90.923 7.064 164.513l1.096 11.48 5.282-.025c4.724-.025 13.038-3.288 8.538-3.353-1.01-.011-1.839-1.161-1.839-2.546 0-2.048.487-2.127 2.582-.425 2.163 1.752 2.405 1.608 1.471-.88-.613-1.634-.418-2.975.433-2.975.854 0 1.258-1.529.898-3.4s.065-3.4.944-3.4c2.17 0 2.055-16.528-.122-17.873-.952-.588-1.215-1.9-.588-2.913.627-1.017.44-1.414-.418-.884-.855.53-2.694.073-4.085-1.013-2.358-1.839-3.155-6.692-3.541-21.525-.087-3.27-.992-6.465-2.02-7.096-1.286-.8-1.11-2.07.585-4.157 1.345-1.652 1.572-2.488.512-1.85-1.11.667-2.3-.249-2.798-2.142-.472-1.817-.043-3.573.959-3.908 1.147-.382 1.255-1.515.288-3.058-.843-1.348-1.298-3.872-1.016-5.61.288-1.749-.227-2.697-1.154-2.124-.992.613-1.316-.364-.793-2.365.49-1.871.14-3.404-.78-3.404-.915 0-1.532-1.72-1.37-3.822.16-2.109-.259-4.593-.93-5.527-4.153-5.805-5.91-98.545-2.285-120.73a190.481 190.481 0 0 0 1.33-10.276c.27-2.848 1.067-6.104 1.76-7.23.883-1.427-.31-2.047-3.93-2.047-2.863 0-5.182.573-5.157 1.273m22.056 211.277c0 .934.811 1.698 1.803 1.698.988 0 1.327-.764.75-1.698-.577-.937-1.389-1.702-1.803-1.702-.411 0-.75.765-.75 1.702m10.204 6.8c0 1.046-.765 1.428-1.702.851-.938-.577-1.698-.241-1.698.75 0 2.221 4.535 2.387 5.877.216.54-.869.202-2.062-.75-2.65-.952-.587-1.73-.212-1.73.833m232.957 80.02c0 .99.764 1.326 1.702.75.937-.578 1.698-1.389 1.698-1.804 0-.41-.764-.746-1.698-.746-.938 0-1.702.811-1.702 1.8"/>
</svg>
